<svg width="175" height="29" viewBox="0 0 175 29" fill="none" xmlns="http://www.w3.org/2000/svg">
<g opacity="0.05">
<path fill-rule="evenodd" clip-rule="evenodd" d="M171.291 6.82639C172.318 6.82639 173.079 6.54415 173.57 5.97967C174.061 5.41519 174.308 4.70129 174.308 3.83797C174.308 2.94855 174.063 2.22517 173.57 1.66069C173.079 1.0962 172.32 0.813965 171.291 0.813965C170.262 0.813965 169.503 1.0962 169.012 1.66069C168.521 2.22517 168.276 2.94855 168.276 3.83797C168.276 4.70129 168.521 5.41519 169.014 5.97967C169.503 6.54415 170.264 6.82639 171.291 6.82639Z" fill="white"/>
<path fill-rule="evenodd" clip-rule="evenodd" d="M169.166 8.76892H166.666V13.0168H169.166V28.4949H174.649V13.0168V8.76892H169.166Z" fill="white"/>
<path fill-rule="evenodd" clip-rule="evenodd" d="M153.265 29.0001C151.918 29.0001 150.735 28.7487 149.72 28.2435C148.702 27.7383 147.91 27.0125 147.338 26.0662C146.767 25.1175 146.482 23.9838 146.482 22.6651C146.482 21.2254 146.836 20.0419 147.545 19.1193C148.254 18.1943 149.248 17.5112 150.526 17.0677C151.804 16.6242 153.28 16.4012 154.947 16.4012H158.341V16.3301C158.341 15.3221 158.113 14.5655 157.656 14.0627C157.2 13.5575 156.467 13.3061 155.462 13.3061C154.959 13.3061 154.297 13.3179 153.474 13.3417C152.651 13.3654 151.807 13.401 150.939 13.4508C150.071 13.4982 149.283 13.5456 148.574 13.5954V8.73332C149.101 8.68589 149.717 8.63608 150.424 8.58865C151.133 8.54121 151.864 8.50563 152.618 8.47954C153.372 8.45583 154.081 8.44397 154.743 8.44397C156.662 8.44397 158.277 8.73332 159.591 9.30966C160.905 9.886 161.903 10.7541 162.589 11.9186C163.274 13.0831 163.618 14.5774 163.618 16.4012V28.4949H159.266V24.7119C159.117 25.2124 158.929 25.6677 158.702 26.0828C158.187 27.0196 157.48 27.7383 156.576 28.2435C155.67 28.7463 154.568 29.0001 153.265 29.0001ZM158.339 19.6055H154.911C153.951 19.6055 153.216 19.8522 152.701 20.3431C152.186 20.8364 151.93 21.5005 151.93 22.3401C151.93 23.1323 152.186 23.7727 152.701 24.266C153.216 24.7593 153.951 25.0036 154.911 25.0036C155.528 25.0036 156.083 24.8898 156.574 24.6621C157.065 24.4344 157.471 24.0454 157.791 23.4928C158.22 22.7528 158.339 22.2666 158.339 21.5148V19.6055Z" fill="white"/>
<path d="M143.738 21.8704H137.707V28.3144H143.738V21.8704Z" fill="white"/>
<path fill-rule="evenodd" clip-rule="evenodd" d="M115.877 28.3145L121.387 18.3056L116.083 8.5885H122.01L125.404 15.284H125.952L129.14 8.5885H134.725L129.754 18.1776L135.788 28.3145H129.825L125.781 21.1517H125.234L121.429 28.3145H115.877Z" fill="white"/>
<path fill-rule="evenodd" clip-rule="evenodd" d="M100.762 16.6882C100.847 16.1687 100.975 15.6944 101.141 15.2675C101.485 14.3923 101.988 13.7258 102.65 13.2705C103.314 12.8151 104.122 12.5874 105.083 12.5874C106.02 12.5874 106.803 12.8103 107.431 13.2538C108.06 13.6974 108.534 14.3401 108.854 15.1797C109.027 15.6351 109.153 16.1379 109.234 16.6905H100.762V16.6882ZM105.287 24.3205C104.191 24.3205 103.299 24.081 102.614 23.6019C101.929 23.1228 101.426 22.4444 101.106 21.5669C100.928 21.0783 100.8 20.5447 100.721 19.9659H109.231H114.437V18.0211C114.437 16.2209 114.072 14.5583 113.341 13.0356C112.611 11.5106 111.553 10.2749 110.17 9.32858C108.79 8.37987 107.092 7.90552 105.081 7.90552C103.551 7.90552 102.185 8.18776 100.985 8.75224C99.7845 9.31672 98.7859 10.0781 97.9867 11.0386C97.1874 11.9992 96.5755 13.0855 96.1533 14.2974C95.7311 15.5094 95.52 16.7736 95.52 18.0946V18.8133C95.52 20.0845 95.7311 21.3273 96.1533 22.5393C96.5755 23.7513 97.1921 24.8423 98.0033 25.8147C98.8144 26.7871 99.8319 27.5603 101.053 28.1367C102.275 28.713 103.686 29 105.285 29C106.862 29 108.254 28.713 109.466 28.1367C110.676 27.5603 111.681 26.7563 112.481 25.7246C113.28 24.6929 113.818 23.5165 114.091 22.1954H109.053C108.826 22.7955 108.389 23.2983 107.751 23.7062C107.116 24.1165 106.293 24.3205 105.287 24.3205Z" fill="white"/>
<path fill-rule="evenodd" clip-rule="evenodd" d="M90.4135 28.5683C88.5161 28.5683 86.9863 28.3216 85.8218 27.8307C84.6573 27.3397 83.8058 26.512 83.2698 25.3474C82.7314 24.1829 82.4634 22.6057 82.4634 20.6134V12.8032H79.6196V8.58853H82.4634V4.07031L87.5698 4.07506V8.5909H93.0533V12.8032H87.9327H87.9279H87.9208H87.9113H87.8995H87.8852H87.5698V15.1915V18.429V20.8292C87.5698 21.7637 87.8046 22.48 88.2718 22.9709C88.7414 23.4642 89.4079 23.7085 90.276 23.7085H93.0509V28.5683H90.4135Z" fill="white"/>
<path fill-rule="evenodd" clip-rule="evenodd" d="M64.5731 16.6882C64.6585 16.1687 64.7842 15.6944 64.9526 15.2675C65.2965 14.3923 65.7993 13.7258 66.461 13.2705C67.1227 12.8151 67.9339 12.5874 68.8944 12.5874C69.8313 12.5874 70.614 12.8103 71.2425 13.2538C71.871 13.6974 72.3454 14.3401 72.6655 15.1797C72.8387 15.6351 72.9644 16.1379 73.045 16.6905H64.5731V16.6882ZM69.0984 24.3205C68.0027 24.3205 67.1109 24.081 66.4254 23.6019C65.74 23.1228 65.2372 22.4444 64.917 21.5669C64.7391 21.0783 64.611 20.5447 64.5328 19.9659H73.0427H78.2487V18.0211C78.2487 16.2209 77.8834 14.5583 77.1529 13.0356C76.4224 11.5106 75.3646 10.2749 73.9819 9.32858C72.5991 8.37987 70.9033 7.90552 68.8921 7.90552C67.3599 7.90552 65.9961 8.18776 64.796 8.75224C63.5959 9.31672 62.5974 10.0781 61.7981 11.0386C60.9988 11.9968 60.3869 13.0831 59.9647 14.2951C59.5426 15.507 59.3291 16.7712 59.3291 18.0923V18.8109C59.3291 20.0822 59.5402 21.325 59.9647 22.5369C60.3869 23.7489 61.0036 24.8399 61.8147 25.8123C62.6259 26.7848 63.6434 27.558 64.8648 28.1343C66.0863 28.7106 67.4975 28.9976 69.096 28.9976C70.6733 28.9976 72.0655 28.7106 73.2775 28.1343C74.4894 27.558 75.4927 26.7539 76.292 25.7222C77.0913 24.6905 77.6273 23.5141 77.9024 22.193H72.8671C72.6395 22.7931 72.2054 23.2959 71.565 23.7039C70.9247 24.1165 70.104 24.3205 69.0984 24.3205Z" fill="white"/>
<path fill-rule="evenodd" clip-rule="evenodd" d="M46.1731 28.3145V8.58855H50.5253V12.6372C51.6732 10.2156 53.4615 8.81387 55.8902 8.43202L55.9021 8.42964L55.9448 8.42253L56.0373 8.4083L56.08 8.40356L56.1796 8.38933L56.2223 8.38458H56.2317L56.3005 8.37747H56.3053L56.3575 8.37272L56.45 8.36323L56.4974 8.35849H56.5116L56.5828 8.35375H56.5899L56.6326 8.35138L56.7251 8.34663L56.7535 8.34426H56.7773L56.8223 8.34189H56.8271C57.1259 8.32766 57.4366 8.32529 57.7544 8.33952V13.306H56.3835C54.8751 13.306 53.7106 13.7305 52.8876 14.5844C52.0646 15.4358 51.6519 16.6668 51.6519 18.2748V28.3193H46.1731V28.3145Z" fill="white"/>
<path fill-rule="evenodd" clip-rule="evenodd" d="M31.9852 29C30.3392 29 28.8782 28.7296 27.5975 28.1889C26.3191 27.6481 25.2399 26.9128 24.36 25.976C23.4801 25.0392 22.8112 23.9671 22.3559 22.7551C21.8981 21.5432 21.6704 20.2648 21.6704 18.9224V18.0923C21.6704 16.7237 21.9052 15.4216 22.3725 14.186C22.8397 12.9503 23.5251 11.864 24.4288 10.9295C25.33 9.99267 26.4211 9.25505 27.7018 8.71666C28.9802 8.1759 30.408 7.90552 31.9852 7.90552C33.6075 7.90552 35.0519 8.1759 36.3208 8.71666C37.5897 9.25742 38.6689 9.99504 39.5606 10.9295C40.4524 11.8664 41.1379 12.9503 41.617 14.186C42.0961 15.4216 42.338 16.7237 42.338 18.0923V18.92C42.338 20.2648 42.1103 21.5408 41.6525 22.7528C41.1972 23.9647 40.5283 25.0392 39.6484 25.9736C38.7685 26.9105 37.6893 27.6481 36.4086 28.1865C35.1254 28.7296 33.6526 29 31.9852 29ZM31.9852 24.1403C33.0596 24.1403 33.949 23.9007 34.6582 23.4192C35.3674 22.9401 35.9081 22.2666 36.2852 21.4032C36.6623 20.5399 36.8497 19.5793 36.8497 18.5239C36.8497 17.395 36.6552 16.4059 36.2686 15.5545C35.8797 14.703 35.327 14.0247 34.606 13.5195C33.8874 13.0143 33.0122 12.7629 31.9852 12.7629C30.9796 12.7629 30.1115 13.0143 29.381 13.5195C28.6505 14.0223 28.0955 14.7006 27.7184 15.5545C27.3413 16.4059 27.1539 17.395 27.1539 18.5239C27.1539 19.5793 27.3366 20.5399 27.7018 21.4032C28.0671 22.2666 28.6149 22.9401 29.3478 23.4192C30.0759 23.9007 30.9559 24.1403 31.9852 24.1403Z" fill="white"/>
<path fill-rule="evenodd" clip-rule="evenodd" d="M10.3261 28.9999C8.70386 28.9999 7.29266 28.7177 6.09254 28.1532C4.89243 27.5887 3.89392 26.8274 3.09463 25.8668C2.29535 24.9063 1.70003 23.8224 1.31344 22.608C0.924466 21.3961 0.72998 20.1414 0.72998 18.8464V18.1633C0.72998 16.8185 0.936325 15.5283 1.34664 14.2926C1.75696 13.0569 2.36413 11.9588 3.16341 10.9982C3.9627 10.0377 4.96121 9.28345 6.16133 8.73082C7.36144 8.1782 8.73706 7.90308 10.2906 7.90308C11.9816 7.90308 13.4782 8.24461 14.7803 8.93005C16.0824 9.61312 17.1236 10.5689 17.8992 11.7928C18.6748 13.0166 19.1112 14.4207 19.2013 16.005H13.8221C13.7296 15.118 13.3928 14.3685 12.8118 13.7566C12.2283 13.1447 11.3887 12.8387 10.2929 12.8387C9.37981 12.8387 8.61848 13.0783 8.01368 13.5597C7.40888 14.0388 6.95587 14.7006 6.6594 15.5402C6.36293 16.3798 6.2135 17.3759 6.2135 18.5286C6.2135 19.584 6.35107 20.5398 6.62619 21.3913C6.89894 22.2428 7.34009 22.9021 7.94489 23.3717C8.54969 23.839 9.34423 24.0738 10.3261 24.0738C11.0566 24.0738 11.6804 23.9362 12.1927 23.6587C12.7074 23.3812 13.1177 22.9994 13.426 22.506C13.7344 22.0151 13.9217 21.4435 13.9905 20.796H19.3365C19.2677 22.4278 18.8337 23.8627 18.0344 25.0984C17.2351 26.3341 16.1725 27.2946 14.8467 27.9777C13.5233 28.656 12.0148 28.9999 10.3261 28.9999Z" fill="white"/>
</g>
</svg>
